<?xml version="1.0" standalone="no"?>
<!DOCTYPE svg PUBLIC "-//W3C//DTD SVG 20010904//EN"
 "http://www.w3.org/TR/2001/REC-SVG-20010904/DTD/svg10.dtd">
<svg version="1.0" xmlns="http://www.w3.org/2000/svg"
 width="357.000000pt" height="124.000000pt" viewBox="0 0 357.000000 124.000000"
 preserveAspectRatio="xMidYMid meet">
<metadata>
Created by potrace 1.15, written by Peter Selinger 2001-2017
</metadata>
<g transform="translate(0.000000,124.000000) scale(0.100000,-0.100000)"
fill="#000000" stroke="none">
<path d="M1616 1070 c-64 -20 -125 -71 -151 -126 -9 -19 -15 -60 -15 -99 0
-125 50 -185 224 -270 141 -69 176 -104 176 -173 0 -100 -62 -146 -189 -141
-64 3 -89 10 -145 39 -66 33 -69 33 -82 15 -8 -10 -14 -31 -14 -46 0 -69 107
-122 250 -123 116 -1 179 21 245 88 55 55 75 103 75 177 0 122 -49 181 -223
267 -148 75 -178 102 -184 169 -5 42 -1 53 22 81 51 61 141 65 252 13 45 -21
64 -26 72 -18 12 12 15 66 5 92 -13 34 -138 76 -222 74 -20 0 -64 -9 -96 -19z"/>
<path d="M373 1063 c-4 -10 42 -113 125 -280 l132 -263 0 -169 c0 -192 3 -201
70 -201 67 0 70 9 70 201 l0 169 130 260 c71 143 130 266 130 274 0 8 -7 17
-16 20 -22 8 -87 7 -100 -2 -15 -9 -104 -186 -164 -324 l-47 -108 -43 98 c-80
179 -159 329 -175 336 -9 3 -37 6 -61 6 -32 0 -46 -5 -51 -17z"/>
<path d="M2493 1059 c-10 -10 -13 -115 -13 -455 l0 -442 23 -6 c29 -8 71 -8
91 0 14 5 16 33 16 205 l0 199 57 0 c70 0 129 -27 160 -72 12 -18 47 -95 77
-172 31 -76 61 -145 67 -152 15 -19 103 -18 118 0 24 28 -119 356 -176 406
-18 16 -33 31 -33 34 0 2 12 7 26 10 38 10 111 88 123 132 6 22 11 59 11 84 0
101 -37 162 -124 208 -49 26 -58 27 -231 30 -136 3 -183 0 -192 -9z m338 -115
c49 -25 69 -61 69 -125 0 -51 -4 -63 -31 -93 -37 -43 -79 -56 -181 -56 l-78 0
0 151 0 152 97 -7 c53 -4 109 -14 124 -22z"/>
</g>
</svg>
